<?xml version="1.0" standalone="no"?>
<!DOCTYPE svg PUBLIC "-//W3C//DTD SVG 20010904//EN"
 "http://www.w3.org/TR/2001/REC-SVG-20010904/DTD/svg10.dtd">
<svg version="1.0" xmlns="http://www.w3.org/2000/svg"
 width="160.000000pt" height="146.000000pt" viewBox="0 0 160.000000 146.000000"
 preserveAspectRatio="xMidYMid meet">
<metadata>
Created by potrace 1.16, written by Peter Selinger 2001-2019
</metadata>
<g transform="translate(0.000000,146.000000) scale(0.100000,-0.100000)"
fill="#000000" stroke="none">
<path d="M742 1423 c-198 -134 -306 -315 -347 -583 -4 -30 -15 -41 -67 -75
-184 -118 -282 -283 -318 -530 -15 -110 -15 -111 35 -141 170 -99 456 -111
684 -29 l68 25 58 -25 c105 -47 177 -59 345 -58 169 0 270 19 354 66 l41 23
-1 90 c-3 209 -93 392 -256 519 -39 30 -83 63 -99 72 -23 14 -30 26 -34 62
-23 184 -51 273 -114 373 -67 107 -230 249 -283 248 -7 -1 -37 -17 -66 -37z
m134 -44 c61 -38 162 -158 205 -243 98 -198 104 -474 16 -661 -39 -82 -152
-235 -173 -235 -8 0 -32 12 -54 26 l-40 27 63 66 c112 119 170 269 170 441 -1
173 -57 313 -171 426 -36 35 -71 64 -77 64 -22 0 -94 -59 -135 -112 -55 -69
-85 -129 -114 -230 -23 -82 -24 -83 -70 -102 -25 -11 -48 -17 -51 -14 -9 9 42
191 73 260 38 84 78 143 139 204 105 105 154 123 219 83z m-13 -196 c26 -26
62 -76 81 -112 37 -71 73 -177 64 -187 -3 -3 -33 0 -67 7 -38 7 -113 10 -197
7 l-136 -5 5 40 c9 63 64 163 129 233 33 35 64 64 68 64 4 0 28 -21 53 -47z
m34 -344 c113 -15 113 -15 113 -57 0 -60 -6 -63 -85 -45 -84 18 -239 12 -330
-11 -142 -38 -277 -130 -344 -235 -33 -51 -84 -181 -95 -243 -12 -67 46 -96
211 -105 84 -5 119 -2 203 17 l101 23 27 -27 c33 -32 29 -36 -73 -69 -60 -19
-92 -22 -220 -22 -133 0 -157 3 -215 24 -35 13 -81 34 -100 47 -36 24 -36 25
-32 82 18 272 199 501 464 586 135 43 241 53 375 35z m364 -140 c67 -43 168
-153 207 -226 39 -75 70 -187 73 -274 3 -63 2 -64 -31 -87 -62 -42 -133 -56
-285 -56 -149 -1 -208 9 -317 50 -184 70 -341 228 -425 428 -18 43 -32 80 -31
81 2 1 22 12 46 24 40 20 43 21 49 4 54 -156 101 -238 190 -327 109 -109 250
-171 410 -182 87 -5 213 10 276 35 25 10 27 14 21 53 -19 143 -78 253 -187
355 l-67 62 6 46 c4 25 9 45 12 45 3 0 27 -14 53 -31z m-320 -22 c42 -13 44
-15 43 -50 -2 -58 -60 -165 -125 -229 -32 -32 -64 -58 -72 -58 -20 0 -86 80
-125 150 -26 46 -62 146 -62 171 0 7 65 26 115 33 48 7 177 -3 226 -17z m-489
-205 c26 -53 72 -128 103 -166 30 -38 55 -73 55 -77 0 -14 -144 -41 -220 -42
-76 0 -176 18 -186 34 -9 15 25 119 63 191 34 66 110 158 129 158 5 -1 30 -45
56 -98z m797 43 c56 -53 102 -133 127 -224 17 -61 17 -64 0 -77 -26 -19 -107
-34 -182 -34 -72 0 -204 26 -204 41 0 5 25 41 56 81 51 66 134 219 134 246 0
22 21 12 69 -33z"/>
</g>
</svg>
