<?xml version="1.0" standalone="no"?>
<!DOCTYPE svg PUBLIC "-//W3C//DTD SVG 20010904//EN"
 "http://www.w3.org/TR/2001/REC-SVG-20010904/DTD/svg10.dtd">
<svg version="1.0" xmlns="http://www.w3.org/2000/svg"
 width="500.000000pt" height="500.000000pt" viewBox="0 0 500.000000 500.000000"
 preserveAspectRatio="xMidYMid meet">
<metadata>
Created by potrace 1.16, written by Peter Selinger 2001-2019
</metadata>
<g transform="translate(0.000000,500.000000) scale(0.100000,-0.100000)"
fill="#c8a24b" stroke="none">
<path d="M1510 3986 c-160 -30 -367 -163 -445 -286 -159 -252 -188 -506 -95
-844 76 -276 257 -562 664 -1047 124 -148 301 -348 497 -564 25 -27 88 -97
139 -155 97 -110 209 -230 215 -230 2 0 36 37 76 83 39 45 107 120 150 167
143 157 294 325 328 365 18 22 55 63 80 90 26 28 98 111 161 185 63 74 116
137 120 140 12 10 177 217 212 265 192 266 274 407 351 600 194 490 62 971
-319 1163 -131 66 -175 76 -339 76 -226 0 -329 -31 -514 -154 -156 -104 -300
-261 -473 -512 -67 -97 -67 -97 -18 -138 49 -41 49 -41 81 7 159 236 308 410
424 497 183 137 320 183 522 174 270 -12 478 -164 549 -400 108 -361 15 -698
-320 -1163 -131 -181 -364 -461 -646 -775 -87 -97 -299 -336 -400 -453 -25
-29 -25 -29 -166 125 -78 84 -164 181 -192 214 -28 34 -89 103 -136 153 -96
102 -189 211 -435 507 -119 143 -310 419 -372 539 -124 238 -177 474 -152 677
24 200 71 306 180 409 116 109 229 156 398 166 241 14 425 -67 645 -284 52
-51 100 -91 105 -89 6 2 24 22 39 45 29 41 29 41 -17 94 -46 53 -194 178 -277
234 -168 111 -411 158 -620 119z"/>
<path d="M2556 3363 c-20 -26 -36 -54 -36 -61 0 -8 24 -48 53 -90 128 -184
258 -459 297 -629 12 -48 25 -92 30 -97 4 -4 31 -1 60 9 52 17 52 17 45 76 -8
69 -79 289 -120 369 -61 123 -264 452 -287 466 -4 3 -23 -17 -42 -43z"/>
<path d="M1548 3360 c-129 -22 -259 -88 -288 -145 -26 -52 -19 -177 15 -260
73 -177 163 -298 309 -416 81 -65 289 -180 302 -167 3 3 8 31 11 61 6 56 6 56
-32 71 -253 106 -495 405 -495 611 0 53 0 53 53 78 84 40 148 51 271 44 137
-8 205 -25 325 -82 133 -65 221 -127 297 -211 66 -74 66 -74 100 -30 19 25 34
51 34 58 0 21 -146 165 -198 195 -26 15 -60 37 -77 49 -160 117 -426 178 -627
144z"/>
<path d="M3138 3356 c-102 -18 -168 -41 -258 -87 -112 -58 -106 -49 -70 -108
17 -28 33 -51 34 -51 1 0 33 15 72 34 135 67 241 91 399 91 123 0 148 -3 202
-24 87 -32 89 -37 75 -131 -31 -216 -256 -480 -497 -582 -61 -27 -252 -88
-271 -88 -34 0 -43 -24 -30 -80 12 -55 13 -55 47 -52 60 7 238 72 338 124 175
91 346 242 429 378 113 186 154 389 91 456 -98 106 -343 158 -561 120z"/>
<path d="M2510 2960 c-108 -127 -131 -160 -172 -243 -35 -69 -111 -268 -105
-273 2 -2 30 -9 61 -16 68 -13 65 -15 97 82 51 154 107 252 216 378 63 73 63
73 38 122 -13 27 -29 51 -33 54 -5 3 -51 -44 -102 -104z"/>
<path d="M2092 2933 c-117 -230 -172 -482 -159 -735 14 -300 137 -544 409
-810 77 -76 144 -138 149 -138 6 0 67 57 137 128 236 236 354 449 402 721 12
65 15 169 7 178 -3 2 -32 -1 -66 -8 -61 -13 -61 -13 -61 -75 0 -226 -140 -503
-378 -746 -46 -48 -46 -48 -85 -10 -139 133 -306 384 -347 522 -84 281 -54
560 96 894 47 106 47 106 8 141 -21 19 -44 34 -51 35 -6 0 -34 -44 -61 -97z"/>
<path d="M2558 2763 c-51 -78 -51 -74 -13 -157 81 -174 108 -374 70 -518 -14
-56 -65 -168 -106 -234 -22 -36 -22 -36 -41 -13 -47 60 -127 268 -128 331 0
24 -4 27 -47 33 -67 9 -68 7 -65 -60 4 -79 50 -214 106 -309 47 -79 133 -186
151 -186 14 0 139 156 170 212 37 66 74 178 87 263 19 124 -14 396 -53 440 -5
5 -9 15 -9 23 0 16 -77 192 -89 205 -4 4 -19 -9 -33 -30z"/>
<path d="M2109 2393 c0 -16 -2 -45 -5 -65 -4 -33 -2 -38 18 -43 123 -28 194
-38 321 -42 148 -6 148 -6 145 53 -3 59 -3 59 -113 66 -91 5 -213 24 -342 53
-20 5 -23 1 -24 -22z"/>
</g>
</svg>
